<svg width="166" height="212" viewBox="0 0 166 212" fill="none" xmlns="http://www.w3.org/2000/svg">
<path d="M49.0656 135.229C46.8128 130.996 45.6864 126.013 45.6864 120.278C45.6864 114.954 46.5739 110.209 48.3488 106.045C50.192 101.812 52.1717 98.4331 54.288 95.9072C56.4725 93.3131 59.1008 91.2651 62.1728 89.7632C65.3131 88.1931 68.624 87.408 72.1056 87.408C77.0208 87.408 80.9461 88.8075 83.8816 91.6064L97.296 80.3424C97.0229 77.9531 96.8864 75.5979 96.8864 73.2768C96.8864 58.1216 100.88 50.544 108.867 50.544C110.915 50.544 112.519 51.2608 113.68 52.6944C114.841 54.128 115.489 55.9712 115.626 58.224C115.694 61.5008 114.636 64.7776 112.451 68.0544C110.335 71.3312 107.195 74.9152 103.03 78.8064C105.147 92.9376 106.205 102.563 106.205 107.683C106.205 112.735 105.556 117.65 104.259 122.429C102.962 127.139 100.982 131.44 98.32 135.331C95.6576 139.222 92.0053 142.26 87.3632 144.445C82.7211 146.629 77.328 147.722 71.184 147.722C62.3776 147.722 55.7216 144.718 51.216 138.71C49.9872 143.011 49.3728 147.892 49.3728 153.354C49.3728 158.883 50.8064 163.833 53.6736 168.202C56.6091 172.639 60.3637 174.858 64.9376 174.858C65.2789 174.858 65.4496 175.199 65.4496 175.882C65.5179 176.564 65.3472 176.906 64.9376 176.906C59.5445 176.906 55.1072 174.346 51.6256 169.226C48.144 164.174 46.4032 158.542 46.4032 152.33C46.4032 146.117 47.2907 140.417 49.0656 135.229ZM85.6224 93.552C87.5339 96.1461 88.4896 99.0816 88.4896 102.358C88.4896 105.567 87.9776 108.468 86.9536 111.062C85.9979 113.588 84.2571 115.841 81.7312 117.821C79.2736 119.732 76.4064 120.688 73.1296 120.688C72.4469 120.688 71.9008 120.517 71.4912 120.176C71.1499 119.835 70.9109 119.289 70.7744 118.538C73.7099 118.538 76.4064 117.172 78.864 114.442C82.4139 110.619 84.1888 106.318 84.1888 101.539C84.1888 99.5595 83.8133 97.648 83.0624 95.8048C75.4165 102.358 68.9653 108.775 63.7088 115.056C58.4523 121.337 54.5952 128.163 52.1376 135.536C56.0288 141.817 62.1387 144.957 70.4672 144.957C75.5872 144.957 80.0587 143.865 83.8816 141.68C87.7728 139.564 90.8107 136.662 92.9952 132.976C97.296 125.74 99.4464 116.967 99.4464 106.659C99.4464 104.133 98.832 96.4533 97.6032 83.6192L85.6224 93.552ZM81.5264 93.6544C79.3419 91.3333 76.3381 90.1728 72.5152 90.1728C68.6923 90.1728 65.2448 91.0944 62.1728 92.9376C56.5067 96.3509 52.4448 102.085 49.9872 110.141C48.8949 113.554 48.3488 117.07 48.3488 120.688C48.3488 124.716 48.9973 128.436 50.2944 131.85C55.0048 120.039 65.4155 107.308 81.5264 93.6544ZM102.109 68.0544C102.109 69.8976 102.279 72.3552 102.621 75.4272C109.379 68.8053 112.758 63.2075 112.758 58.6336C112.758 55.0837 111.461 53.3088 108.867 53.3088C104.362 53.3088 102.109 58.224 102.109 68.0544Z" fill="black"/>
<path d="M163.325 86.7111C162.585 82.2411 161.456 77.7812 160.121 73.5083C158.734 68.7987 157.641 66.1189 157.641 66.1189C157.496 65.7891 157.347 65.4688 157.197 65.1437C155.941 61.8945 154.578 58.6873 153.11 55.5275C151.216 51.0731 148.985 46.7683 146.435 42.6505C146.376 42.5539 146.338 42.4848 146.338 42.4848C142.189 35.8135 137.223 29.6805 131.554 24.2269C131.554 24.2269 83.0328 -24.9437 33.5961 16.8155C33.5322 16.8532 33.4887 16.9058 33.4358 16.949C33.3979 16.9859 33.3711 17.0024 33.3285 17.0393C-9.56213 58.6227 -1.04006 112.961 5.01894 135.439C5.01894 135.439 5.06631 135.625 5.16262 135.966C6.35705 140.319 7.42833 143.404 7.98094 144.885C10.4393 151.907 14.3873 161.604 19.6853 169.552C23.8279 176.208 28.783 182.328 34.4376 187.773C34.4376 187.773 82.9688 236.944 132.411 195.184C132.476 195.147 132.518 195.078 132.572 195.051C132.609 195.014 132.626 194.987 132.663 194.945C170.042 158.716 168.381 112.796 163.33 86.7111H163.325ZM136.054 183.948C125.742 196.122 112.8 202.206 97.2073 202.206C82.5457 202.206 69.2562 197.48 57.3213 188.061C45.4291 178.641 35.7931 165.871 28.4536 149.739C21.126 133.632 16.653 115.811 15.041 96.3218C14.7725 92.1823 14.591 88.7409 14.4678 85.9754V84.4255C14.4678 58.9902 19.6308 40.2038 29.9536 28.0303C40.2495 15.8568 53.2083 9.78342 68.7896 9.78342C83.4615 9.78342 96.7573 14.5095 108.676 23.9293C120.584 33.3484 130.215 46.1084 137.559 62.2361C144.887 78.3521 149.36 96.1632 150.956 115.652C151.235 119.807 151.422 123.25 151.529 125.999C151.54 126.515 151.54 127.016 151.54 127.56C151.54 152.994 146.376 171.769 136.054 183.944V183.948Z" fill="black"/>
</svg>
