<svg
      width="211"
      height="270"
      viewBox="0 0 211 270"
      fill="none"
      xmlns="http://www.w3.org/2000/svg"

    >
      <path fill="black" d="M147.445 102.166L141.001 59H136.86C136.093 60.2246 133.822 62.7656 130.877 63.1329C127.195 63.5921 112.927 59 99.5805 59C91.2962 59 63.6819 61.2961 61.841 91.145C60 120.994 83.4722 132.474 91.2955 139.822C99.1188 147.169 150.207 182.988 122.592 204.112C97.4158 223.371 72.8867 178.855 68.2843 154.517H60V209.25H63C77.7276 189.045 86.2336 204.112 97.2793 208.245C108.325 212.378 142.843 213.755 149.286 177.477C155.73 141.199 116.609 120.535 109.705 114.565C102.801 108.595 62.7614 79.2054 89.9155 64.5106C112.184 52.4597 132.718 86.859 139.621 103.544L147.445 102.166Z" />
      <path fill="black" d="M206.886 110.434C205.949 104.741 204.518 99.061 202.828 93.619C201.071 87.621 199.686 84.208 199.686 84.208C199.503 83.788 199.313 83.38 199.123 82.966C197.532 78.8279 195.805 74.7433 193.946 70.719C191.547 65.0459 188.721 59.5634 185.491 54.319C185.417 54.196 185.369 54.108 185.369 54.108C180.113 45.6115 173.822 37.8007 166.641 30.855C166.641 30.855 105.179 -31.768 42.5565 21.416C42.4755 21.464 42.4205 21.531 42.3535 21.586C42.3055 21.633 42.2715 21.654 42.2175 21.701C-12.1125 74.661 -1.31745 143.865 6.35755 172.493C6.35755 172.493 6.41755 172.73 6.53955 173.164C8.05255 178.708 9.40955 182.637 10.1095 184.523C13.2235 193.466 18.2245 205.816 24.9355 215.939C30.1831 224.416 36.4598 232.21 43.6225 239.145C43.6225 239.145 105.098 301.768 167.727 248.584C167.809 248.536 167.863 248.448 167.931 248.414C167.978 248.367 167.999 248.333 168.046 248.279C215.394 202.138 213.291 143.655 206.892 110.434H206.886ZM172.341 234.274C159.279 249.778 142.886 257.527 123.134 257.527C104.562 257.527 87.7276 251.508 72.6096 239.512C57.5456 227.515 45.3395 211.251 36.0425 190.705C26.7605 170.192 21.0945 147.495 19.0525 122.674C18.7125 117.402 18.4825 113.019 18.3265 109.497V107.523C18.3265 75.129 24.8665 51.203 37.9425 35.699C50.9845 20.195 67.3996 12.46 87.1366 12.46C105.722 12.46 122.564 18.479 137.661 30.476C152.745 42.472 164.945 58.723 174.248 79.263C183.53 99.788 189.196 122.472 191.218 147.293C191.571 152.585 191.808 156.969 191.944 160.47C191.958 161.128 191.958 161.766 191.958 162.458C191.958 194.851 185.417 218.763 172.341 234.268V234.274Z" />
    </svg>
